<svg version="1.1" xmlns="http://www.w3.org/2000/svg" xmlns:xlink="http://www.w3.org/1999/xlink" data-browser="Chrome[59.0]" preserveAspectRatio="xMidYMid meet" viewBox="0 0 137 138"><g id="logo__item--business" class="logo__item">
                <g class="logo__item__inner" transform="translate(3.71875 134.2076576452696) scale(1 1) rotate(0 0 0)">
                    <text dy="" dominant-baseline="auto" alignment-baseline="auto" font-family="'LoveYaLikeASister-Regular'" font-size="32px" fill="#24c3c3" letter-spacing="0" font-weight="normal" font-style="normal">Barkbook</text>
                </g>
            </g><g id="logo__item--logo_0" class="logo__item">
    <g class="logo__item__inner" transform="translate(-3.94853282054612 -16) scale(1.404412074595105 1.404412074595105) rotate(0 0 0)">
        
<g>
	<path fill="#e000a4" d="M37.041,63.503l-5.817,6.339c-1.35,1.454-3.637,3.738-3.637,5.922c0,4.468,8.208,5.715,11.532,5.715   c9.248-0.104,23.586-6.858,23.586-11.014C62.704,65.062,41.3,63.503,37.041,63.503z"></path>
	<path fill="#e000a4" d="M96.445,50.729l-9.246-16.016c-2.113,15.374-31.787,19.421-43.508,21.725l-2.079,1.869   c7.377,1.353,32.833,3.429,32.833,13.404c0,3.812-5.335,10.976-16.57,16.018h17.208L96.445,50.729z"></path>
	<path fill="#24c3c3" d="M17.818,57.893c0-4.467,14.547-4.675,17.664-5.609c6.755-6.546,13.611-15.275,24.002-15.275   c-0.729,1.767-1.456,3.119-10.08,13.196c23.482-3.221,28.988-10.286,28.781-13.091c-0.104-2.286-3.013-5.922-15.065-5.091   c-2.391,0.208-13.404,1.559-29.196,7.273c0.624,0.311,1.454,0.727,1.454,1.559c0,1.559-2.389,2.182-3.74,2.389   c-6.443,1.039-8.416,1.974-14.444,3.948c-0.934,0.312-2.078,0.727-3.22,0.727c-0.477,0-0.874-0.089-1.217-0.234L11,50.729   l10.801,18.707c1.469-2.03,3.296-4.484,5.577-7.493C24.468,61.736,17.818,61.426,17.818,57.893z"></path>
	<path fill="#24c3c3" d="M65.198,20.281c6.979,0,11.86,1.084,15.244,2.732l-5.359-9.283H32.362l-8.67,15.017   c0.391-0.217,0.787-0.414,1.192-0.569C34.963,24.333,54.392,20.281,65.198,20.281z"></path>
</g>

    </g>
</g></svg>